<svg version="1.1" viewBox="0.0 0.0 183.06561679790028 183.06561679790028" fill="none" stroke="none" stroke-linecap="square" stroke-miterlimit="10" xmlns:xlink="http://www.w3.org/1999/xlink" xmlns="http://www.w3.org/2000/svg"><clipPath id="p.0"><path d="m0 0l183.06561 0l0 183.06561l-183.06561 0l0 -183.06561z" clip-rule="nonzero"/></clipPath><g clip-path="url(#p.0)"><path fill="#000000" fill-opacity="0.0" d="m0 0l183.06561 0l0 183.06561l-183.06561 0z" fill-rule="evenodd"/><path fill="#e06666" d="m91.33919 170.9356l0 0c-28.56815 0 -51.9736 -33.385086 -52.865475 -75.40632c-0.8918724 -42.021233 21.052174 -77.49084 49.56464 -80.11458l0.17438507 4.104192l0 0c-26.281239 2.5505886 -46.479637 36.163765 -45.63537 75.94412c0.8442726 39.78035 22.426453 71.368225 48.761818 71.368225z" fill-rule="evenodd"/><path stroke="#595959" stroke-width="1.0" stroke-linejoin="round" stroke-linecap="butt" d="m91.33919 170.9356l0 0c-28.56815 0 -51.9736 -33.385086 -52.865475 -75.40632c-0.8918724 -42.021233 21.052174 -77.49084 49.56464 -80.11458l0.17438507 4.104192l0 0c-26.281239 2.5505886 -46.479637 36.163765 -45.63537 75.94412c0.8442726 39.78035 22.426453 71.368225 48.761818 71.368225z" fill-rule="evenodd"/><path fill="#ea9999" d="m52.437553 160.51869l0 0c-24.749153 -14.29129 -28.337814 -54.91086 -8.105602 -91.74622c20.232212 -36.835358 56.97259 -56.572754 82.98439 -44.58027l-1.9014053 3.6430855l0 0c-24.042252 -10.939758 -58.341957 8.062481 -77.49477 42.93256c-19.152817 34.870087 -16.244904 73.0205 6.569969 86.19485z" fill-rule="evenodd"/><path stroke="#595959" stroke-width="1.0" stroke-linejoin="round" stroke-linecap="butt" d="m52.437553 160.51869l0 0c-24.749153 -14.29129 -28.337814 -54.91086 -8.105602 -91.74622c20.232212 -36.835358 56.97259 -56.572754 82.98439 -44.58027l-1.9014053 3.6430855l0 0c-24.042252 -10.939758 -58.341957 8.062481 -77.49477 42.93256c-19.152817 34.870087 -16.244904 73.0205 6.569969 86.19485z" fill-rule="evenodd"/><path fill="#6d9eeb" d="m130.26031 25.692986l0 0c24.74916 14.29129 28.337814 54.910866 8.105606 91.74622c-20.232216 36.835358 -56.972595 56.572754 -82.98439 44.580276l1.901413 -3.6430817l0 0c24.042248 10.939758 58.341953 -8.062485 77.49477 -42.93257c19.152817 -34.87008 16.244904 -73.02049 -6.569977 -86.19484z" fill-rule="evenodd"/><path stroke="#595959" stroke-width="1.0" stroke-linejoin="round" stroke-linecap="butt" d="m130.26031 25.692986l0 0c24.74916 14.29129 28.337814 54.910866 8.105606 91.74622c-20.232216 36.835358 -56.972595 56.572754 -82.98439 44.580276l1.901413 -3.6430817l0 0c24.042248 10.939758 58.341953 -8.062485 77.49477 -42.93257c19.152817 -34.87008 16.244904 -73.02049 -6.569977 -86.19484z" fill-rule="evenodd"/><path fill="#e06666" d="m169.19167 93.123375l0 0c0 28.565155 -33.388138 51.96821 -75.41338 52.86016c-42.02525 0.8919678 -77.49852 -21.049538 -80.12303 -49.559l4.1037846 -0.17436981l0 0c2.5513992 26.278458 36.168434 46.474487 75.95302 45.630127c39.78459 -0.84436035 71.37567 -22.424316 71.37567 -48.75692z" fill-rule="evenodd"/><path stroke="#595959" stroke-width="1.0" stroke-linejoin="round" stroke-linecap="butt" d="m169.19167 93.123375l0 0c0 28.565155 -33.388138 51.96821 -75.41338 52.86016c-42.02525 0.8919678 -77.49852 -21.049538 -80.12303 -49.559l4.1037846 -0.17436981l0 0c2.5513992 26.278458 36.168434 46.474487 75.95302 45.630127c39.78459 -0.84436035 71.37567 -22.424316 71.37567 -48.75692z" fill-rule="evenodd"/><path fill="#a4c2f4" d="m13.519667 93.101776l0 0c0 -28.565155 33.388145 -51.968204 75.41339 -52.860165c42.025253 -0.89196014 77.49852 21.049541 80.12303 49.559002l-4.1037903 0.17436981l0 0c-2.5513916 -26.278454 -36.168427 -46.474483 -75.95301 -45.630123c-39.784588 0.84435654 -71.37567 22.424313 -71.37567 48.756916z" fill-rule="evenodd"/><path stroke="#595959" stroke-width="1.0" stroke-linejoin="round" stroke-linecap="butt" d="m13.519667 93.101776l0 0c0 -28.565155 33.388145 -51.968204 75.41339 -52.860165c42.025253 -0.89196014 77.49852 21.049541 80.12303 49.559002l-4.1037903 0.17436981l0 0c-2.5513916 -26.278454 -36.168427 -46.474483 -75.95301 -45.630123c-39.784588 0.84435654 -71.37567 22.424313 -71.37567 48.756916z" fill-rule="evenodd"/><path fill="#ea9999" d="m158.77446 132.00827l0 0c-14.292679 24.746628 -54.91619 28.334976 -91.7552 8.104904c-36.839005 -20.230057 -56.578518 -56.96663 -44.58509 -82.97588l3.643097 1.9010162l0 0c-10.9405775 24.039917 8.063862 58.33615 42.93759 77.48704c34.873726 19.150879 73.02798 16.243301 86.203606 -6.5692444z" fill-rule="evenodd"/><path stroke="#595959" stroke-width="1.0" stroke-linejoin="round" stroke-linecap="butt" d="m158.77446 132.00827l0 0c-14.292679 24.746628 -54.91619 28.334976 -91.7552 8.104904c-36.839005 -20.230057 -56.578518 -56.96663 -44.58509 -82.97588l3.643097 1.9010162l0 0c-10.9405775 24.039917 8.063862 58.33615 42.93759 77.48704c34.873726 19.150879 73.02798 16.243301 86.203606 -6.5692444z" fill-rule="evenodd"/><path fill="#6d9eeb" d="m23.936872 54.189938l0 0c14.292688 -24.746618 54.9162 -28.334969 91.7552 -8.104904c36.83902 20.23006 56.57852 56.966633 44.5851 82.975876l-3.643097 -1.9010086l0 0c10.940582 -24.039917 -8.063873 -58.33615 -42.93759 -77.48703c-34.873726 -19.15088 -73.02797 -16.243298 -86.203606 6.569233z" fill-rule="evenodd"/><path stroke="#595959" stroke-width="1.0" stroke-linejoin="round" stroke-linecap="butt" d="m23.936872 54.189938l0 0c14.292688 -24.746618 54.9162 -28.334969 91.7552 -8.104904c36.83902 20.23006 56.57852 56.966633 44.5851 82.975876l-3.643097 -1.9010086l0 0c10.940582 -24.039917 -8.063873 -58.33615 -42.93759 -77.48703c-34.873726 -19.15088 -73.02797 -16.243298 -86.203606 6.569233z" fill-rule="evenodd"/><path fill="#a4c2f4" d="m80.73223 53.4198l0 0c21.934464 -5.830433 44.446198 7.208088 50.301353 29.133926c5.8551483 21.925835 -7.159889 44.449646 -29.081467 50.32834l-10.653679 -39.71945z" fill-rule="evenodd"/><path stroke="#595959" stroke-width="1.0" stroke-linejoin="round" stroke-linecap="butt" d="m80.73223 53.4198l0 0c21.934464 -5.830433 44.446198 7.208088 50.301353 29.133926c5.8551483 21.925835 -7.159889 44.449646 -29.081467 50.32834l-10.653679 -39.71945z" fill-rule="evenodd"/><path fill="#ea9999" d="m86.0876 73.8495l0 0c10.654892 -2.8378677 21.594788 3.4911194 24.444664 14.141808c2.8498764 10.650696 -3.4676971 21.596458 -14.116318 24.457764l-5.185417 -19.294098z" fill-rule="evenodd"/><path stroke="#595959" stroke-width="1.0" stroke-linejoin="round" stroke-linecap="butt" d="m86.0876 73.8495l0 0c10.654892 -2.8378677 21.594788 3.4911194 24.444664 14.141808c2.8498764 10.650696 -3.4676971 21.596458 -14.116318 24.457764l-5.185417 -19.294098z" fill-rule="evenodd"/><path fill="#b6d7a8" d="m101.85073 132.83006l0 0c-21.934464 5.830429 -44.446194 -7.208084 -50.301346 -29.133919c-5.855152 -21.925842 7.159889 -44.44965 29.081467 -50.328346l10.653671 39.71946z" fill-rule="evenodd"/><path stroke="#595959" stroke-width="1.0" stroke-linejoin="round" stroke-linecap="butt" d="m101.85073 132.83006l0 0c-21.934464 5.830429 -44.446194 -7.208084 -50.301346 -29.133919c-5.855152 -21.925842 7.159889 -44.44965 29.081467 -50.328346l10.653671 39.71946z" fill-rule="evenodd"/><path fill="#e06666" d="m88.58442 83.04264l0 0c5.5530396 -1.4791336 11.254707 1.8192673 12.740097 7.370117c1.4853897 5.55085 -1.8070679 11.255577 -7.3568344 12.746925l-2.7026978 -10.055557z" fill-rule="evenodd"/><path stroke="#595959" stroke-width="1.0" stroke-linejoin="round" stroke-linecap="butt" d="m88.58442 83.04264l0 0c5.5530396 -1.4791336 11.254707 1.8192673 12.740097 7.370117c1.4853897 5.55085 -1.8070679 11.255577 -7.3568344 12.746925l-2.7026978 -10.055557z" fill-rule="evenodd"/><path fill="#a4c2f4" d="m91.35868 15.276088l0 0c28.568153 0 51.973595 33.38509 52.86547 75.40633c0.8918762 42.021233 -21.05217 77.49084 -49.564636 80.11457l-0.17438507 -4.104187l0 0c26.281235 -2.550583 46.479637 -36.163757 45.63537 -75.94412c-0.8442688 -39.780357 -22.426453 -71.368225 -48.761818 -71.368225z" fill-rule="evenodd"/><path stroke="#595959" stroke-width="1.0" stroke-linejoin="round" stroke-linecap="butt" d="m91.35868 15.276088l0 0c28.568153 0 51.973595 33.38509 52.86547 75.40633c0.8918762 42.021233 -21.05217 77.49084 -49.564636 80.11457l-0.17438507 -4.104187l0 0c26.281235 -2.550583 46.479637 -36.163757 45.63537 -75.94412c-0.8442688 -39.780357 -22.426453 -71.368225 -48.761818 -71.368225z" fill-rule="evenodd"/></g></svg>