<?xml version="1.0" encoding="UTF-8" standalone="no"?>
<!-- Created with Inkscape (http://www.inkscape.org/) -->

<svg
   width="6cm"
   height="5.5cm"
   viewBox="0 0 60 55.000001"
   version="1.1"
   id="svg1"
   inkscape:version="1.3.2 (091e20e, 2023-11-25)"
   sodipodi:docname="suncompass.svg"
   inkscape:export-filename="SunDec.png"
   inkscape:export-xdpi="300"
   inkscape:export-ydpi="300"
   xml:space="preserve"
   xmlns:inkscape="http://www.inkscape.org/namespaces/inkscape"
   xmlns:sodipodi="http://sodipodi.sourceforge.net/DTD/sodipodi-0.dtd"
   xmlns="http://www.w3.org/2000/svg"
   xmlns:svg="http://www.w3.org/2000/svg"><sodipodi:namedview
     id="namedview1"
     pagecolor="#ffffff"
     bordercolor="#666666"
     borderopacity="1.0"
     inkscape:showpageshadow="2"
     inkscape:pageopacity="0.0"
     inkscape:pagecheckerboard="0"
     inkscape:deskcolor="#d1d1d1"
     inkscape:document-units="mm"
     inkscape:zoom="1.0031812"
     inkscape:cx="196.37529"
     inkscape:cy="112.14325"
     inkscape:window-width="1664"
     inkscape:window-height="890"
     inkscape:window-x="47"
     inkscape:window-y="25"
     inkscape:window-maximized="0"
     inkscape:current-layer="layer1" /><defs
     id="defs1"><clipPath
       clipPathUnits="userSpaceOnUse"
       id="clipPath107"><ellipse
         style="fill:#d7eef4;stroke:#006680;stroke-width:0.705554;stroke-linecap:round;stroke-dasharray:none;paint-order:stroke fill markers"
         id="ellipse108"
         cx="117.12814"
         cy="146.89316"
         rx="48.372868"
         ry="21.272406" /></clipPath></defs><g
     inkscape:label="Layer 1"
     inkscape:groupmode="layer"
     id="layer1"><g
       id="g18"
       transform="matrix(0.79971118,0,0,0.79971118,11.223798,24.67344)"
       style="stroke-width:1.37955"><path
         d="m -26.88196,-10.951684 5.866199,-6.033803 c -2.095071,-0.419014 -4.022536,-1.257042 -5.782397,-2.430282 l -0.08381,8.464085"
         id="path1"
         style="fill:#ffcc00;stroke-width:1.37954" /><path
         d="m -7.6073054,-57.378458 -5.8661976,6.033804 c 2.095071,0.419015 4.0225346,1.257044 5.7823941,2.430284 l 0.08381,-8.464088"
         id="path2"
         style="fill:#ffcc00;stroke-width:1.37954" /><path
         d="m -34.424216,-30.393942 -6.033805,5.866199 8.464089,-0.08381 c -1.173242,-1.759858 -2.011269,-3.687324 -2.430284,-5.782395"
         id="path3"
         style="fill:#ffcc00;stroke-width:1.37954" /><path
         d="m -0.06505176,-37.936197 6.03380506,-5.866201 -8.4640861,0.08381 c 1.1732388,1.759861 2.0112674,3.687326 2.43028104,5.782397"
         id="path4"
         style="fill:#ffcc00;stroke-width:1.37954" /><path
         d="m -31.993932,-43.718594 -8.464089,-0.08381 6.033805,5.866201 c 0.419015,-2.095072 1.257042,-4.022538 2.430284,-5.782398"
         id="path5"
         style="fill:#ffcc00;stroke-width:1.37954" /><path
         d="m -2.4953328,-24.611546 8.4640861,0.08381 -6.03380506,-5.866199 c -0.41901364,2.09507 -1.25704224,4.022537 -2.43028104,5.782396"
         id="path6"
         style="fill:#ffcc00;stroke-width:1.37954" /><path
         d="m -21.015761,-51.344654 -5.866199,-6.033804 0.08381,8.464088 c 1.759861,-1.17324 3.687325,-2.011269 5.782396,-2.430284"
         id="path7"
         style="fill:#ffcc00;stroke-width:1.37954" /><path
         d="m -13.473503,-16.985487 5.8661976,6.033803 -0.08381,-8.464085 c -1.7598594,1.17324 -3.6873246,2.011268 -5.7823956,2.430282"
         id="path8"
         style="fill:#ffcc00;stroke-width:1.37954" /><path
         d="m -31.658722,-24.108728 -3.352113,7.793662 7.793664,-3.352113 c -1.75986,-1.257042 -3.268311,-2.765494 -4.441551,-4.441549"
         id="path9"
         style="fill:#ffcc00;stroke-width:1.37954" /><path
         d="m -2.8305442,-44.221411 3.35211314,-7.793665 -7.79366284,3.352114 c 1.7598581,1.257042 3.2683083,2.765493 4.4415497,4.441551"
         id="path10"
         style="fill:#ffcc00;stroke-width:1.37954" /><path
         d="m -34.84323,-34.165071 c 0,-1.089436 0.08381,-2.095071 0.33521,-3.100705 l -7.877466,3.100705 7.877466,3.100707 c -0.251408,-1.005636 -0.33521,-2.011269 -0.33521,-3.100707"
         id="path11"
         style="fill:#ffcc00;stroke-width:1.37954" /><path
         d="m 7.8962191,-34.165071 -7.87746733,-3.100705 c 0.16760572,1.005634 0.33521145,2.095071 0.33521145,3.100705 0,1.089438 -0.0838102,2.095071 -0.33521145,3.100707 l 7.87746733,-3.100707"
         id="path12"
         style="fill:#ffcc00;stroke-width:1.37954" /><path
         d="m -27.300973,-48.579159 -7.793666,-3.352114 3.352113,7.793665 c 1.257044,-1.759861 2.765495,-3.268312 4.441553,-4.441551"
         id="path13"
         style="fill:#ffcc00;stroke-width:1.37954" /><path
         d="m -7.1882904,-19.750982 7.79366154,3.352116 -3.35211314,-7.793665 c -1.2570436,1.759858 -2.7654938,3.26831 -4.4415484,4.441549"
         id="path14"
         style="fill:#ffcc00;stroke-width:1.37954" /><path
         d="m -14.143927,-51.428456 -3.100707,-7.877467 -3.100704,7.877467 c 1.005633,-0.167605 2.095072,-0.335212 3.100704,-0.335212 1.089439,0 2.095072,0.08381 3.100707,0.335212"
         id="path15"
         style="fill:#ffcc00;stroke-width:1.37954" /><path
         d="m -20.345338,-16.901685 3.100704,7.8774651 3.100707,-7.8774651 c -1.005635,0.251409 -2.011268,0.335213 -3.100707,0.335213 -1.089435,0 -2.095071,-0.08381 -3.100704,-0.335213"
         id="path16"
         style="fill:#ffcc00;stroke-width:1.37954" /><path
         d="m -17.244634,-50.08761 c -8.799297,0 -15.92254,7.123241 -15.92254,15.922539 0,8.799298 7.123243,15.922542 15.92254,15.922542 8.7993,0 15.92254,-7.123244 15.92254,-15.922542 0,-8.799298 -7.12324,-15.922539 -15.92254,-15.922539"
         id="path17"
         sodipodi:nodetypes="csssc"
         style="fill:#ffd42a;stroke-width:1.37954" /></g><g
       id="g1"
       transform="matrix(0.83997972,0,0,0.83997972,6.4362851,8.0607583)"
       style="stroke-width:1.19051"><ellipse
         style="fill:#dae2ec;fill-opacity:1;stroke:none;stroke-width:0.839967;stroke-linecap:round;stroke-dasharray:none;paint-order:stroke fill markers"
         id="path105"
         cx="28.680696"
         cy="30.903406"
         rx="31.319304"
         ry="13.772947" /><path
         d="m 42.528596,28.693459 c 0.393103,0.591373 0.607036,1.218512 0.607036,1.866933 0,0.626731 -0.200465,1.231785 -0.565165,1.805082 L 60,30.543927 v -0.02441 z m -13.847873,8.382133 c -1.388793,0 -2.732148,-0.09035 -4.005079,-0.254695 l 4.044295,7.855448 h 0.05419 l 4.048738,-7.873539 c -1.311274,0.176374 -2.701854,0.272786 -4.142334,0.272786 z M 14.22578,30.560799 c 0,-0.625927 0.201467,-1.231765 0.565158,-1.805061 l -17.4295237,1.821533 v 0.02435 L 14.832818,32.42797 C 14.438839,31.836603 14.22578,31.210681 14.22578,30.560635 Z m 14.454943,-6.5148 c 1.392367,0 2.733896,0.09081 4.00504,0.254303 l -4.041596,-7.85506 h -0.05419 l -4.051405,7.873932 c 1.311241,-0.176748 2.703602,-0.273175 4.142333,-0.273175 z m 9.050354,11.59373 6.310229,1.816743 -4.037154,-2.848438 c -0.669431,0.380458 -1.431582,0.727178 -2.273075,1.031695 z m -18.098954,-10.158287 -6.311985,-1.81671 4.03712,2.848018 c 0.673001,-0.379663 1.431619,-0.726369 2.274865,-1.031308 z M 45.650274,23.61934 c 2.18124,-1.400519 1.423561,-1.742408 -1.685646,-0.759311 l -16.226135,5.129153 c 1.768559,-0.148203 3.57452,0.07425 4.969549,0.703881 1.395061,0.628726 1.889775,1.443077 1.559067,2.239745 z M 24.652466,32.324094 C 23.258344,31.69454 22.765383,30.878578 23.098791,30.079895 L 11.712052,37.39701 c -2.1821438,1.399294 -1.424476,1.74198 1.688306,0.758902 l 16.226136,-5.130785 c -1.769446,0.148656 -3.578968,-0.07423 -4.974028,-0.701033 z"
         id="path2-5"
         style="fill:#74abe5;fill-opacity:1;stroke-width:0.314988" /><path
         id="path106"
         style="fill:#5f5f5f;fill-opacity:1;stroke-width:1.29733;stroke-linecap:round;paint-order:stroke fill markers"
         d="m 156.12597,175.85796 c -1.10607,1.39916 -3.12293,1.63512 -4.52209,0.52904 l -37.04176,-29.2824 c -1.50422,-1.18912 2.32317,-4.00641 3.99305,-2.68633 l 37.04176,29.2824 c 1.39917,1.10608 1.63512,0.75812 0.52904,2.15729 z"
         sodipodi:nodetypes="ssssss"
         clip-path="url(#clipPath107)"
         transform="matrix(0.647456,0,0,0.647456,-47.154622,-64.203402)" /><path
         id="rect105"
         style="fill:#74abe5;fill-opacity:1;stroke-width:0.839967;stroke-linecap:round;paint-order:stroke fill markers"
         d="m 28.680703,3.1161203 c 1.154771,0 2.084427,0.7746347 2.084427,1.7368488 V 30.32674 c 0,1.034458 -4.16886,1.148383 -4.16886,0 V 4.8529691 c 0,-0.9622141 0.929657,-1.7368488 2.084433,-1.7368488 z"
         sodipodi:nodetypes="ssssss" /></g></g></svg>
